<?xml version="1.0" standalone="no"?><svg xmlns="http://www.w3.org/2000/svg" viewBox="0 0 1440 320"><path fill="#f2f9ff" fill-opacity="1" d="M0,192L20,176C40,160,80,128,120,106.7C160,85,200,75,240,80C280,85,320,107,360,128C400,149,440,171,480,160C520,149,560,107,600,112C640,117,680,171,720,170.7C760,171,800,117,840,101.3C880,85,920,107,960,133.3C1000,160,1040,192,1080,208C1120,224,1160,224,1200,208C1240,192,1280,160,1320,144C1360,128,1400,128,1420,128L1440,128L1440,320L1420,320C1400,320,1360,320,1320,320C1280,320,1240,320,1200,320C1160,320,1120,320,1080,320C1040,320,1000,320,960,320C920,320,880,320,840,320C800,320,760,320,720,320C680,320,640,320,600,320C560,320,520,320,480,320C440,320,400,320,360,320C320,320,280,320,240,320C200,320,160,320,120,320C80,320,40,320,20,320L0,320Z"></path></svg>
